<mxfile host="app.diagrams.net" agent="Mozilla/5.0 (Windows NT 10.0; Win64; x64) AppleWebKit/537.36 (KHTML, like Gecko) Chrome/130.0.0.0 Safari/537.36" version="24.8.4">
  <diagram name="Page-1" id="whjdMHeX_15tAqoDFHGX">
    <mxGraphModel dx="1793" dy="923" grid="1" gridSize="10" guides="1" tooltips="1" connect="1" arrows="1" fold="1" page="1" pageScale="1" pageWidth="850" pageHeight="1100" math="0" shadow="0">
      <root>
        <mxCell id="0" />
        <mxCell id="1" parent="0" />
        <mxCell id="DHzNnzk9FLlJhgzF2ajY-1" value="Funcionario" style="swimlane;fontStyle=1;align=center;verticalAlign=top;childLayout=stackLayout;horizontal=1;startSize=26;horizontalStack=0;resizeParent=1;resizeParentMax=0;resizeLast=0;collapsible=1;marginBottom=0;whiteSpace=wrap;html=1;" vertex="1" parent="1">
          <mxGeometry x="40" y="40" width="320" height="140" as="geometry" />
        </mxCell>
        <mxCell id="DHzNnzk9FLlJhgzF2ajY-2" value="- IdFuncionario: Int&lt;div&gt;- Funcao: String&lt;/div&gt;&lt;div&gt;&amp;nbsp; ENUM (&#39;professor&#39;, &#39;administrativo&#39;, coordenacao)&lt;/div&gt;" style="text;strokeColor=none;fillColor=none;align=left;verticalAlign=top;spacingLeft=4;spacingRight=4;overflow=hidden;rotatable=0;points=[[0,0.5],[1,0.5]];portConstraint=eastwest;whiteSpace=wrap;html=1;" vertex="1" parent="DHzNnzk9FLlJhgzF2ajY-1">
          <mxGeometry y="26" width="320" height="64" as="geometry" />
        </mxCell>
        <mxCell id="DHzNnzk9FLlJhgzF2ajY-3" value="" style="line;strokeWidth=1;fillColor=none;align=left;verticalAlign=middle;spacingTop=-1;spacingLeft=3;spacingRight=3;rotatable=0;labelPosition=right;points=[];portConstraint=eastwest;strokeColor=inherit;" vertex="1" parent="DHzNnzk9FLlJhgzF2ajY-1">
          <mxGeometry y="90" width="320" height="8" as="geometry" />
        </mxCell>
        <mxCell id="DHzNnzk9FLlJhgzF2ajY-4" value="FazerLogin ()&lt;div&gt;AlterarSenha ()&lt;/div&gt;" style="text;strokeColor=none;fillColor=none;align=left;verticalAlign=top;spacingLeft=4;spacingRight=4;overflow=hidden;rotatable=0;points=[[0,0.5],[1,0.5]];portConstraint=eastwest;whiteSpace=wrap;html=1;" vertex="1" parent="DHzNnzk9FLlJhgzF2ajY-1">
          <mxGeometry y="98" width="320" height="42" as="geometry" />
        </mxCell>
        <mxCell id="DHzNnzk9FLlJhgzF2ajY-5" value="Professor" style="swimlane;fontStyle=1;align=center;verticalAlign=top;childLayout=stackLayout;horizontal=1;startSize=26;horizontalStack=0;resizeParent=1;resizeParentMax=0;resizeLast=0;collapsible=1;marginBottom=0;whiteSpace=wrap;html=1;" vertex="1" parent="1">
          <mxGeometry x="160" y="220" width="200" height="180" as="geometry" />
        </mxCell>
        <mxCell id="DHzNnzk9FLlJhgzF2ajY-6" value="- Nome: String&lt;div&gt;- Sobrenome: String&lt;/div&gt;&lt;div&gt;- EmailInstitucional: String&lt;/div&gt;&lt;div&gt;- Senha: String&lt;/div&gt;" style="text;strokeColor=none;fillColor=none;align=left;verticalAlign=top;spacingLeft=4;spacingRight=4;overflow=hidden;rotatable=0;points=[[0,0.5],[1,0.5]];portConstraint=eastwest;whiteSpace=wrap;html=1;" vertex="1" parent="DHzNnzk9FLlJhgzF2ajY-5">
          <mxGeometry y="26" width="200" height="74" as="geometry" />
        </mxCell>
        <mxCell id="DHzNnzk9FLlJhgzF2ajY-7" value="" style="line;strokeWidth=1;fillColor=none;align=left;verticalAlign=middle;spacingTop=-1;spacingLeft=3;spacingRight=3;rotatable=0;labelPosition=right;points=[];portConstraint=eastwest;strokeColor=inherit;" vertex="1" parent="DHzNnzk9FLlJhgzF2ajY-5">
          <mxGeometry y="100" width="200" height="8" as="geometry" />
        </mxCell>
        <mxCell id="DHzNnzk9FLlJhgzF2ajY-8" value="+ PesquisarRequisicaoFaltas&lt;div&gt;- RealizarJustificativaFaltas&lt;/div&gt;&lt;div&gt;- RealizarReposicaoAulas&lt;/div&gt;&lt;div&gt;- AlterarRequisicaoFaltas&lt;/div&gt;" style="text;strokeColor=none;fillColor=none;align=left;verticalAlign=top;spacingLeft=4;spacingRight=4;overflow=hidden;rotatable=0;points=[[0,0.5],[1,0.5]];portConstraint=eastwest;whiteSpace=wrap;html=1;" vertex="1" parent="DHzNnzk9FLlJhgzF2ajY-5">
          <mxGeometry y="108" width="200" height="72" as="geometry" />
        </mxCell>
        <mxCell id="DHzNnzk9FLlJhgzF2ajY-9" value="Coordenador" style="swimlane;fontStyle=1;align=center;verticalAlign=top;childLayout=stackLayout;horizontal=1;startSize=26;horizontalStack=0;resizeParent=1;resizeParentMax=0;resizeLast=0;collapsible=1;marginBottom=0;whiteSpace=wrap;html=1;" vertex="1" parent="1">
          <mxGeometry x="160" y="640" width="200" height="160" as="geometry" />
        </mxCell>
        <mxCell id="DHzNnzk9FLlJhgzF2ajY-10" value="- Nome: String&lt;div&gt;- Sobrenome: String&lt;/div&gt;&lt;div&gt;- EmailInstitucional: String&lt;/div&gt;&lt;div&gt;- Senha: String&lt;/div&gt;" style="text;strokeColor=none;fillColor=none;align=left;verticalAlign=top;spacingLeft=4;spacingRight=4;overflow=hidden;rotatable=0;points=[[0,0.5],[1,0.5]];portConstraint=eastwest;whiteSpace=wrap;html=1;" vertex="1" parent="DHzNnzk9FLlJhgzF2ajY-9">
          <mxGeometry y="26" width="200" height="64" as="geometry" />
        </mxCell>
        <mxCell id="DHzNnzk9FLlJhgzF2ajY-11" value="" style="line;strokeWidth=1;fillColor=none;align=left;verticalAlign=middle;spacingTop=-1;spacingLeft=3;spacingRight=3;rotatable=0;labelPosition=right;points=[];portConstraint=eastwest;strokeColor=inherit;" vertex="1" parent="DHzNnzk9FLlJhgzF2ajY-9">
          <mxGeometry y="90" width="200" height="8" as="geometry" />
        </mxCell>
        <mxCell id="DHzNnzk9FLlJhgzF2ajY-12" value="+ PesquisarRequisicaoFaltas&lt;br&gt;- AlterarStatusRequisicaoFaltas&lt;br&gt;- ComentarRequisicaoFaltas" style="text;strokeColor=none;fillColor=none;align=left;verticalAlign=top;spacingLeft=4;spacingRight=4;overflow=hidden;rotatable=0;points=[[0,0.5],[1,0.5]];portConstraint=eastwest;whiteSpace=wrap;html=1;" vertex="1" parent="DHzNnzk9FLlJhgzF2ajY-9">
          <mxGeometry y="98" width="200" height="62" as="geometry" />
        </mxCell>
        <mxCell id="DHzNnzk9FLlJhgzF2ajY-13" value="Administrativo" style="swimlane;fontStyle=1;align=center;verticalAlign=top;childLayout=stackLayout;horizontal=1;startSize=26;horizontalStack=0;resizeParent=1;resizeParentMax=0;resizeLast=0;collapsible=1;marginBottom=0;whiteSpace=wrap;html=1;" vertex="1" parent="1">
          <mxGeometry x="160" y="440" width="200" height="160" as="geometry" />
        </mxCell>
        <mxCell id="DHzNnzk9FLlJhgzF2ajY-18" style="edgeStyle=orthogonalEdgeStyle;rounded=0;orthogonalLoop=1;jettySize=auto;html=1;exitX=0.012;exitY=0.508;exitDx=0;exitDy=0;exitPerimeter=0;endArrow=none;endFill=0;" edge="1" parent="DHzNnzk9FLlJhgzF2ajY-13" source="DHzNnzk9FLlJhgzF2ajY-15">
          <mxGeometry relative="1" as="geometry">
            <mxPoint x="-80" y="-260" as="targetPoint" />
          </mxGeometry>
        </mxCell>
        <mxCell id="DHzNnzk9FLlJhgzF2ajY-14" value="- Nome: String&lt;div&gt;- Sobrenome: String&lt;/div&gt;&lt;div&gt;- EmailInstitucional: String&lt;/div&gt;&lt;div&gt;- Senha: String&lt;/div&gt;" style="text;strokeColor=none;fillColor=none;align=left;verticalAlign=top;spacingLeft=4;spacingRight=4;overflow=hidden;rotatable=0;points=[[0,0.5],[1,0.5]];portConstraint=eastwest;whiteSpace=wrap;html=1;" vertex="1" parent="DHzNnzk9FLlJhgzF2ajY-13">
          <mxGeometry y="26" width="200" height="74" as="geometry" />
        </mxCell>
        <mxCell id="DHzNnzk9FLlJhgzF2ajY-15" value="" style="line;strokeWidth=1;fillColor=none;align=left;verticalAlign=middle;spacingTop=-1;spacingLeft=3;spacingRight=3;rotatable=0;labelPosition=right;points=[];portConstraint=eastwest;strokeColor=inherit;" vertex="1" parent="DHzNnzk9FLlJhgzF2ajY-13">
          <mxGeometry y="100" width="200" height="8" as="geometry" />
        </mxCell>
        <mxCell id="DHzNnzk9FLlJhgzF2ajY-16" value="+ PesquisarRequisicaoFaltas&lt;div&gt;- AprovarRequisicaoFaltas&lt;/div&gt;" style="text;strokeColor=none;fillColor=none;align=left;verticalAlign=top;spacingLeft=4;spacingRight=4;overflow=hidden;rotatable=0;points=[[0,0.5],[1,0.5]];portConstraint=eastwest;whiteSpace=wrap;html=1;" vertex="1" parent="DHzNnzk9FLlJhgzF2ajY-13">
          <mxGeometry y="108" width="200" height="52" as="geometry" />
        </mxCell>
        <mxCell id="DHzNnzk9FLlJhgzF2ajY-17" style="edgeStyle=orthogonalEdgeStyle;rounded=0;orthogonalLoop=1;jettySize=auto;html=1;entryX=0.143;entryY=1;entryDx=0;entryDy=0;entryPerimeter=0;exitX=0.001;exitY=0.508;exitDx=0;exitDy=0;exitPerimeter=0;endArrow=none;endFill=0;" edge="1" parent="1" source="DHzNnzk9FLlJhgzF2ajY-7" target="DHzNnzk9FLlJhgzF2ajY-4">
          <mxGeometry relative="1" as="geometry">
            <Array as="points">
              <mxPoint x="80" y="324" />
              <mxPoint x="80" y="180" />
            </Array>
          </mxGeometry>
        </mxCell>
        <mxCell id="DHzNnzk9FLlJhgzF2ajY-19" style="edgeStyle=orthogonalEdgeStyle;rounded=0;orthogonalLoop=1;jettySize=auto;html=1;exitX=0.015;exitY=0.488;exitDx=0;exitDy=0;endArrow=none;endFill=0;exitPerimeter=0;" edge="1" parent="1" source="DHzNnzk9FLlJhgzF2ajY-11">
          <mxGeometry relative="1" as="geometry">
            <mxPoint x="80" y="181" as="targetPoint" />
            <Array as="points">
              <mxPoint x="80" y="734" />
              <mxPoint x="80" y="181" />
            </Array>
          </mxGeometry>
        </mxCell>
        <mxCell id="DHzNnzk9FLlJhgzF2ajY-21" value="RequisicaoFaltas" style="swimlane;fontStyle=1;align=center;verticalAlign=top;childLayout=stackLayout;horizontal=1;startSize=26;horizontalStack=0;resizeParent=1;resizeParentMax=0;resizeLast=0;collapsible=1;marginBottom=0;whiteSpace=wrap;html=1;" vertex="1" parent="1">
          <mxGeometry x="480" y="40" width="240" height="200" as="geometry" />
        </mxCell>
        <mxCell id="DHzNnzk9FLlJhgzF2ajY-22" value="- IdRequisicao: Int&lt;div&gt;- DataInicial: Date&lt;/div&gt;&lt;div&gt;- DataFinal: Date&lt;/div&gt;&lt;div&gt;- CaixaJustificativa: String&lt;/div&gt;&lt;div&gt;- ComentarioCoordenador:String&lt;br&gt;- StatusRequisicao: String&lt;br&gt;&amp;nbsp; ENUM (&#39;pendente&#39;, &#39;finalizado&#39;)&lt;/div&gt;" style="text;strokeColor=none;fillColor=none;align=left;verticalAlign=top;spacingLeft=4;spacingRight=4;overflow=hidden;rotatable=0;points=[[0,0.5],[1,0.5]];portConstraint=eastwest;whiteSpace=wrap;html=1;" vertex="1" parent="DHzNnzk9FLlJhgzF2ajY-21">
          <mxGeometry y="26" width="240" height="114" as="geometry" />
        </mxCell>
        <mxCell id="DHzNnzk9FLlJhgzF2ajY-23" value="" style="line;strokeWidth=1;fillColor=none;align=left;verticalAlign=middle;spacingTop=-1;spacingLeft=3;spacingRight=3;rotatable=0;labelPosition=right;points=[];portConstraint=eastwest;strokeColor=inherit;" vertex="1" parent="DHzNnzk9FLlJhgzF2ajY-21">
          <mxGeometry y="140" width="240" height="8" as="geometry" />
        </mxCell>
        <mxCell id="DHzNnzk9FLlJhgzF2ajY-24" value="- BuscarCategoriaFaltas&lt;br&gt;- BuscarMotivoFaltas" style="text;strokeColor=none;fillColor=none;align=left;verticalAlign=top;spacingLeft=4;spacingRight=4;overflow=hidden;rotatable=0;points=[[0,0.5],[1,0.5]];portConstraint=eastwest;whiteSpace=wrap;html=1;" vertex="1" parent="DHzNnzk9FLlJhgzF2ajY-21">
          <mxGeometry y="148" width="240" height="52" as="geometry" />
        </mxCell>
        <mxCell id="DHzNnzk9FLlJhgzF2ajY-29" value="Cursos" style="swimlane;fontStyle=1;align=center;verticalAlign=top;childLayout=stackLayout;horizontal=1;startSize=26;horizontalStack=0;resizeParent=1;resizeParentMax=0;resizeLast=0;collapsible=1;marginBottom=0;whiteSpace=wrap;html=1;" vertex="1" parent="1">
          <mxGeometry x="800" y="280" width="200" height="138" as="geometry" />
        </mxCell>
        <mxCell id="DHzNnzk9FLlJhgzF2ajY-30" value="- IdCurso: Int&lt;div&gt;- Curso: String&lt;/div&gt;&lt;div&gt;- SiglaCurso: String&lt;/div&gt;" style="text;strokeColor=none;fillColor=none;align=left;verticalAlign=top;spacingLeft=4;spacingRight=4;overflow=hidden;rotatable=0;points=[[0,0.5],[1,0.5]];portConstraint=eastwest;whiteSpace=wrap;html=1;" vertex="1" parent="DHzNnzk9FLlJhgzF2ajY-29">
          <mxGeometry y="26" width="200" height="64" as="geometry" />
        </mxCell>
        <mxCell id="DHzNnzk9FLlJhgzF2ajY-31" value="" style="line;strokeWidth=1;fillColor=none;align=left;verticalAlign=middle;spacingTop=-1;spacingLeft=3;spacingRight=3;rotatable=0;labelPosition=right;points=[];portConstraint=eastwest;strokeColor=inherit;" vertex="1" parent="DHzNnzk9FLlJhgzF2ajY-29">
          <mxGeometry y="90" width="200" height="48" as="geometry" />
        </mxCell>
        <mxCell id="DHzNnzk9FLlJhgzF2ajY-33" value="Disciplina" style="swimlane;fontStyle=1;align=center;verticalAlign=top;childLayout=stackLayout;horizontal=1;startSize=26;horizontalStack=0;resizeParent=1;resizeParentMax=0;resizeLast=0;collapsible=1;marginBottom=0;whiteSpace=wrap;html=1;" vertex="1" parent="1">
          <mxGeometry x="1050" y="278" width="200" height="140" as="geometry" />
        </mxCell>
        <mxCell id="DHzNnzk9FLlJhgzF2ajY-34" value="- IdDisciplina: Int&lt;div&gt;- Disciplina: String&lt;/div&gt;" style="text;strokeColor=none;fillColor=none;align=left;verticalAlign=top;spacingLeft=4;spacingRight=4;overflow=hidden;rotatable=0;points=[[0,0.5],[1,0.5]];portConstraint=eastwest;whiteSpace=wrap;html=1;" vertex="1" parent="DHzNnzk9FLlJhgzF2ajY-33">
          <mxGeometry y="26" width="200" height="74" as="geometry" />
        </mxCell>
        <mxCell id="DHzNnzk9FLlJhgzF2ajY-35" value="" style="line;strokeWidth=1;fillColor=none;align=left;verticalAlign=middle;spacingTop=-1;spacingLeft=3;spacingRight=3;rotatable=0;labelPosition=right;points=[];portConstraint=eastwest;strokeColor=inherit;" vertex="1" parent="DHzNnzk9FLlJhgzF2ajY-33">
          <mxGeometry y="100" width="200" height="40" as="geometry" />
        </mxCell>
        <mxCell id="DHzNnzk9FLlJhgzF2ajY-39" value="CategoriaFaltas" style="swimlane;fontStyle=1;align=center;verticalAlign=top;childLayout=stackLayout;horizontal=1;startSize=26;horizontalStack=0;resizeParent=1;resizeParentMax=0;resizeLast=0;collapsible=1;marginBottom=0;whiteSpace=wrap;html=1;" vertex="1" parent="1">
          <mxGeometry x="800" y="40" width="160" height="118" as="geometry" />
        </mxCell>
        <mxCell id="DHzNnzk9FLlJhgzF2ajY-40" value="- IdCategoria: Int&lt;div&gt;- Categoria: String&lt;/div&gt;" style="text;strokeColor=none;fillColor=none;align=left;verticalAlign=top;spacingLeft=4;spacingRight=4;overflow=hidden;rotatable=0;points=[[0,0.5],[1,0.5]];portConstraint=eastwest;whiteSpace=wrap;html=1;" vertex="1" parent="DHzNnzk9FLlJhgzF2ajY-39">
          <mxGeometry y="26" width="160" height="54" as="geometry" />
        </mxCell>
        <mxCell id="DHzNnzk9FLlJhgzF2ajY-41" value="" style="line;strokeWidth=1;fillColor=none;align=left;verticalAlign=middle;spacingTop=-1;spacingLeft=3;spacingRight=3;rotatable=0;labelPosition=right;points=[];portConstraint=eastwest;strokeColor=inherit;" vertex="1" parent="DHzNnzk9FLlJhgzF2ajY-39">
          <mxGeometry y="80" width="160" height="38" as="geometry" />
        </mxCell>
        <mxCell id="DHzNnzk9FLlJhgzF2ajY-42" value="JustificativaFaltas" style="swimlane;fontStyle=1;align=center;verticalAlign=top;childLayout=stackLayout;horizontal=1;startSize=26;horizontalStack=0;resizeParent=1;resizeParentMax=0;resizeLast=0;collapsible=1;marginBottom=0;whiteSpace=wrap;html=1;" vertex="1" parent="1">
          <mxGeometry x="1000" y="40" width="200" height="118" as="geometry" />
        </mxCell>
        <mxCell id="DHzNnzk9FLlJhgzF2ajY-43" value="- IdJustificativa: Int&lt;br&gt;- Justificativa: String" style="text;strokeColor=none;fillColor=none;align=left;verticalAlign=top;spacingLeft=4;spacingRight=4;overflow=hidden;rotatable=0;points=[[0,0.5],[1,0.5]];portConstraint=eastwest;whiteSpace=wrap;html=1;" vertex="1" parent="DHzNnzk9FLlJhgzF2ajY-42">
          <mxGeometry y="26" width="200" height="54" as="geometry" />
        </mxCell>
        <mxCell id="DHzNnzk9FLlJhgzF2ajY-44" value="" style="line;strokeWidth=1;fillColor=none;align=left;verticalAlign=middle;spacingTop=-1;spacingLeft=3;spacingRight=3;rotatable=0;labelPosition=right;points=[];portConstraint=eastwest;strokeColor=inherit;" vertex="1" parent="DHzNnzk9FLlJhgzF2ajY-42">
          <mxGeometry y="80" width="200" height="38" as="geometry" />
        </mxCell>
        <mxCell id="DHzNnzk9FLlJhgzF2ajY-47" style="edgeStyle=orthogonalEdgeStyle;rounded=0;orthogonalLoop=1;jettySize=auto;html=1;exitX=0;exitY=0.5;exitDx=0;exitDy=0;entryX=1;entryY=0.5;entryDx=0;entryDy=0;endArrow=none;endFill=0;" edge="1" parent="1" source="DHzNnzk9FLlJhgzF2ajY-43" target="DHzNnzk9FLlJhgzF2ajY-40">
          <mxGeometry relative="1" as="geometry" />
        </mxCell>
        <mxCell id="DHzNnzk9FLlJhgzF2ajY-54" style="edgeStyle=orthogonalEdgeStyle;rounded=0;orthogonalLoop=1;jettySize=auto;html=1;exitX=0.5;exitY=0;exitDx=0;exitDy=0;entryX=0.5;entryY=1;entryDx=0;entryDy=0;endArrow=none;endFill=0;" edge="1" parent="1" source="DHzNnzk9FLlJhgzF2ajY-49" target="DHzNnzk9FLlJhgzF2ajY-21">
          <mxGeometry relative="1" as="geometry" />
        </mxCell>
        <mxCell id="DHzNnzk9FLlJhgzF2ajY-49" value="ReposicaoFaltas" style="swimlane;fontStyle=1;align=center;verticalAlign=top;childLayout=stackLayout;horizontal=1;startSize=26;horizontalStack=0;resizeParent=1;resizeParentMax=0;resizeLast=0;collapsible=1;marginBottom=0;whiteSpace=wrap;html=1;" vertex="1" parent="1">
          <mxGeometry x="480" y="280" width="240" height="200" as="geometry" />
        </mxCell>
        <mxCell id="DHzNnzk9FLlJhgzF2ajY-50" value="- IdReposicao: Int&lt;br&gt;- TipoReposicao: String&lt;br&gt;&lt;div&gt;- DataReposicao: Date&lt;/div&gt;&lt;div&gt;- HorarioInicial: Timestamp&lt;/div&gt;&lt;div&gt;- HorarioFinal: Timestamp&lt;/div&gt;" style="text;strokeColor=none;fillColor=none;align=left;verticalAlign=top;spacingLeft=4;spacingRight=4;overflow=hidden;rotatable=0;points=[[0,0.5],[1,0.5]];portConstraint=eastwest;whiteSpace=wrap;html=1;" vertex="1" parent="DHzNnzk9FLlJhgzF2ajY-49">
          <mxGeometry y="26" width="240" height="114" as="geometry" />
        </mxCell>
        <mxCell id="DHzNnzk9FLlJhgzF2ajY-51" value="" style="line;strokeWidth=1;fillColor=none;align=left;verticalAlign=middle;spacingTop=-1;spacingLeft=3;spacingRight=3;rotatable=0;labelPosition=right;points=[];portConstraint=eastwest;strokeColor=inherit;" vertex="1" parent="DHzNnzk9FLlJhgzF2ajY-49">
          <mxGeometry y="140" width="240" height="8" as="geometry" />
        </mxCell>
        <mxCell id="DHzNnzk9FLlJhgzF2ajY-52" value="- BuscarCurso&lt;div&gt;- BuscarDisciplina&lt;/div&gt;" style="text;strokeColor=none;fillColor=none;align=left;verticalAlign=top;spacingLeft=4;spacingRight=4;overflow=hidden;rotatable=0;points=[[0,0.5],[1,0.5]];portConstraint=eastwest;whiteSpace=wrap;html=1;" vertex="1" parent="DHzNnzk9FLlJhgzF2ajY-49">
          <mxGeometry y="148" width="240" height="52" as="geometry" />
        </mxCell>
        <mxCell id="DHzNnzk9FLlJhgzF2ajY-53" style="edgeStyle=orthogonalEdgeStyle;rounded=0;orthogonalLoop=1;jettySize=auto;html=1;exitX=0;exitY=0.5;exitDx=0;exitDy=0;entryX=0.999;entryY=0.074;entryDx=0;entryDy=0;entryPerimeter=0;endArrow=none;endFill=0;" edge="1" parent="1" source="DHzNnzk9FLlJhgzF2ajY-40" target="DHzNnzk9FLlJhgzF2ajY-21">
          <mxGeometry relative="1" as="geometry" />
        </mxCell>
        <mxCell id="DHzNnzk9FLlJhgzF2ajY-59" style="edgeStyle=orthogonalEdgeStyle;rounded=0;orthogonalLoop=1;jettySize=auto;html=1;exitX=0;exitY=0.5;exitDx=0;exitDy=0;entryX=0.998;entryY=0.542;entryDx=0;entryDy=0;entryPerimeter=0;endArrow=none;endFill=0;" edge="1" parent="1" source="DHzNnzk9FLlJhgzF2ajY-34" target="DHzNnzk9FLlJhgzF2ajY-30">
          <mxGeometry relative="1" as="geometry" />
        </mxCell>
        <mxCell id="DHzNnzk9FLlJhgzF2ajY-60" style="edgeStyle=orthogonalEdgeStyle;rounded=0;orthogonalLoop=1;jettySize=auto;html=1;exitX=0;exitY=0.5;exitDx=0;exitDy=0;entryX=0.994;entryY=0.073;entryDx=0;entryDy=0;entryPerimeter=0;endArrow=none;endFill=0;" edge="1" parent="1" source="DHzNnzk9FLlJhgzF2ajY-30" target="DHzNnzk9FLlJhgzF2ajY-49">
          <mxGeometry relative="1" as="geometry" />
        </mxCell>
        <mxCell id="DHzNnzk9FLlJhgzF2ajY-61" style="edgeStyle=orthogonalEdgeStyle;rounded=0;orthogonalLoop=1;jettySize=auto;html=1;exitX=1;exitY=0.5;exitDx=0;exitDy=0;entryX=0;entryY=0.05;entryDx=0;entryDy=0;endArrow=none;endFill=0;entryPerimeter=0;" edge="1" parent="1" source="DHzNnzk9FLlJhgzF2ajY-2" target="DHzNnzk9FLlJhgzF2ajY-21">
          <mxGeometry relative="1" as="geometry" />
        </mxCell>
      </root>
    </mxGraphModel>
  </diagram>
</mxfile>
